<svg width="134" height="150" viewBox="0 0 134 150" fill="none" xmlns="http://www.w3.org/2000/svg">
<g clip-path="url(#clip0_108_294)" filter="url(#filter0_d_108_294)">
<path d="M92.3536 34.2109C89.8928 26.2539 83.4122 19.7733 75.4551 17.3125C72.6661 16.451 69.795 16 67.0059 16C61.3047 16 55.8088 17.7637 51.215 21.2091C44.4062 26.2129 40.3458 34.2109 40.3458 42.6602C40.3458 48.4842 42.1915 54.0216 45.6778 58.6564L67.0059 86L88.334 58.6564C93.5429 51.6836 95.0196 42.7833 92.3536 34.2109ZM67.0059 57.0156C59.0899 57.0156 52.6505 50.5762 52.6505 42.6602C52.6505 34.7441 59.0899 28.3047 67.0059 28.3047C74.9219 28.3047 81.3614 34.7441 81.3614 42.6602C81.3614 50.5762 74.9219 57.0156 67.0059 57.0156Z" fill="#FF4415"/>
<path d="M88.334 58.6564L67.0059 86V57.0156C74.9219 57.0156 81.3614 50.5762 81.3614 42.6602C81.3614 34.7441 74.9219 28.3047 67.0059 28.3047V16C69.795 16 72.6661 16.4512 75.4551 17.3125C83.4122 19.7733 89.8928 26.2539 92.3536 34.2109C95.0196 42.7833 93.5429 51.6836 88.334 58.6564Z" fill="#FF5F36"/>
<ellipse cx="67" cy="42.8333" rx="19.8333" ry="19.8333" fill="white"/>
<g clip-path="url(#clip1_108_294)">
<path d="M71.742 37.4232C71.6907 37.4233 71.6399 37.4132 71.5924 37.3936C71.545 37.3739 71.502 37.3452 71.4657 37.3089C71.4294 37.2726 71.4006 37.2295 71.381 37.1821C71.3614 37.1347 71.3513 37.0839 71.3513 37.0326V33.4848C71.351 33.2333 71.251 32.9922 71.0732 32.8143C70.8953 32.6365 70.6542 32.5364 70.4027 32.5361H70.0232C69.9196 32.5361 69.8202 32.495 69.747 32.4217C69.6737 32.3485 69.6326 32.2491 69.6326 32.1455C69.6326 32.0419 69.6737 31.9426 69.747 31.8693C69.8202 31.796 69.9196 31.7549 70.0232 31.7549H70.4027C70.8613 31.7554 71.301 31.9378 71.6253 32.2622C71.9496 32.5865 72.1321 33.0262 72.1326 33.4848V37.0326C72.1326 37.1362 72.0914 37.2356 72.0182 37.3088C71.9449 37.3821 71.8456 37.4232 71.742 37.4232Z" fill="#385B60"/>
<path d="M54.8348 32.5234H61.5313V39.2199H54.8348V32.5234Z" fill="#F5502F"/>
<path d="M54.8348 32.5234H61.5313V33.8627H54.8348V32.5234Z" fill="#F9D42F"/>
<path d="M76.9169 48.2146C76.9169 41.4926 74.4778 37.6143 74.4778 37.6143H72.5603L73.0492 41.5159C73.1542 42.3582 72.9984 43.2124 72.6028 43.9634C72.2507 44.6323 71.7226 45.1923 71.0755 45.583C70.4284 45.9736 69.6869 46.1801 68.9311 46.1802H67.1648C66.8258 46.1802 66.4995 46.0517 66.2516 45.8206C65.8941 45.4874 65.6611 45.0422 65.591 44.5586C65.5208 44.075 65.6178 43.582 65.8659 43.161L65.8882 43.1232C66.1045 42.7563 66.2186 42.3381 66.2188 41.9121C66.2188 41.5569 66.0777 41.2162 65.8265 40.965C65.5753 40.7139 65.2347 40.5728 64.8795 40.5728H60.3593C58.9385 40.5728 57.5759 41.1372 56.5712 42.1419C55.5666 43.1465 55.0021 44.5091 55.0021 45.93V48.2146H76.9169Z" fill="#FF4415"/>
<path d="M76.3483 38.4804L71.8735 37.94V36.1169L76.2144 35.2705L76.3483 38.4804Z" fill="#F9D42F"/>
<path d="M76.5554 38.7735C76.3778 38.7735 76.2075 38.703 76.0819 38.5774C75.9563 38.4518 75.8857 38.2815 75.8857 38.1039V35.4253C75.8857 35.2477 75.9563 35.0773 76.0819 34.9518C76.2075 34.8262 76.3778 34.7556 76.5554 34.7556C76.733 34.7556 76.9033 34.8262 77.0289 34.9518C77.1545 35.0773 77.225 35.2477 77.225 35.4253V38.1039C77.225 38.2815 77.1545 38.4518 77.0289 38.5774C76.9033 38.703 76.733 38.7735 76.5554 38.7735Z" fill="#FB9401"/>
<path d="M71.742 38.037C72.2967 38.037 72.7464 37.5873 72.7464 37.0325C72.7464 36.4778 72.2967 36.0281 71.742 36.0281C71.1872 36.0281 70.7375 36.4778 70.7375 37.0325C70.7375 37.5873 71.1872 38.037 71.742 38.037Z" fill="#537980"/>
<path d="M75.4266 52.527C77.2177 52.527 78.6697 51.075 78.6697 49.2839C78.6697 47.4928 77.2177 46.0408 75.4266 46.0408C73.6355 46.0408 72.1835 47.4928 72.1835 49.2839C72.1835 51.075 73.6355 52.527 75.4266 52.527Z" fill="#537980"/>
<path d="M75.4266 51.1875C75.0501 51.1875 74.682 51.0758 74.3689 50.8666C74.0558 50.6574 73.8118 50.3601 73.6677 50.0122C73.5236 49.6643 73.4859 49.2815 73.5594 48.9122C73.6329 48.5429 73.8142 48.2037 74.0805 47.9374C74.3468 47.6712 74.686 47.4899 75.0554 47.4164C75.4247 47.343 75.8075 47.3807 76.1554 47.5249C76.5032 47.669 76.8005 47.913 77.0097 48.2262C77.2189 48.5393 77.3305 48.9074 77.3305 49.2839C77.3299 49.7886 77.1291 50.2725 76.7722 50.6294C76.4153 50.9863 75.9314 51.187 75.4266 51.1875Z" fill="#EDEDF9"/>
<path d="M71.6908 49.5564C71.5945 49.5572 71.4991 49.5371 71.4113 49.4974C71.3235 49.4577 71.2454 49.3994 71.1823 49.3266C71.1193 49.2537 71.0728 49.168 71.0461 49.0754C71.0195 48.9829 71.0132 48.8856 71.0278 48.7904C71.2073 47.7538 71.747 46.8139 72.5518 46.1364C73.3566 45.4589 74.3748 45.0874 75.4268 45.0874C76.4788 45.0874 77.497 45.4589 78.3018 46.1364C79.1066 46.8139 79.6463 47.7538 79.8257 48.7904C79.8403 48.8856 79.8341 48.9829 79.8074 49.0754C79.7807 49.168 79.7343 49.2537 79.6712 49.3266C79.6082 49.3994 79.53 49.4577 79.4422 49.4974C79.3545 49.5371 79.2591 49.5572 79.1627 49.5564H71.6908Z" fill="#F9D42F"/>
<path d="M59.0665 52.527C60.8577 52.527 62.3096 51.075 62.3096 49.2839C62.3096 47.4928 60.8577 46.0408 59.0665 46.0408C57.2754 46.0408 55.8234 47.4928 55.8234 49.2839C55.8234 51.075 57.2754 52.527 59.0665 52.527Z" fill="#537980"/>
<path d="M59.0665 51.1875C58.6899 51.1875 58.3218 51.0758 58.0087 50.8666C57.6957 50.6574 57.4516 50.3601 57.3076 50.0122C57.1635 49.6643 57.1258 49.2815 57.1993 48.9122C57.2727 48.5429 57.4541 48.2037 57.7204 47.9374C57.9866 47.6712 58.3259 47.4899 58.6952 47.4164C59.0645 47.343 59.4473 47.3807 59.7952 47.5249C60.1431 47.669 60.4404 47.913 60.6495 48.2262C60.8587 48.5393 60.9703 48.9074 60.9703 49.2839C60.9697 49.7886 60.7689 50.2725 60.412 50.6294C60.0551 50.9863 59.5712 51.187 59.0665 51.1875Z" fill="#EDEDF9"/>
<path d="M63.7458 49.5562H54.8347C54.7327 49.556 54.6321 49.5325 54.5406 49.4875C54.449 49.4425 54.369 49.3771 54.3065 49.2965C54.2441 49.2158 54.2009 49.1219 54.1802 49.022C54.1596 48.9221 54.162 48.8188 54.1874 48.72C54.5317 47.3843 55.2844 46.1893 56.3403 45.3018C57.3962 44.4143 58.7028 43.8785 60.0779 43.7691C60.7373 43.7168 61.3996 43.823 62.0096 44.0787C62.6196 44.3344 63.1597 44.7323 63.5847 45.2391C64.0097 45.7459 64.3074 46.347 64.453 46.9922C64.5985 47.6375 64.5877 48.3081 64.4214 48.9484L64.3938 49.0551C64.3565 49.1985 64.2726 49.3256 64.1553 49.4162C64.0381 49.5069 63.894 49.5561 63.7458 49.5562Z" fill="#F9D42F"/>
<path d="M57.2244 46.6983C57.1439 46.6986 57.0652 46.6739 56.9992 46.6277C56.9332 46.5816 56.8831 46.5161 56.8558 46.4403C56.8284 46.3646 56.8252 46.2822 56.8465 46.2045C56.8677 46.1268 56.9125 46.0576 56.9746 46.0064C57.2585 45.7708 57.5646 45.5632 57.8885 45.3867C57.9335 45.3622 57.9829 45.3468 58.0339 45.3413C58.0849 45.3359 58.1365 45.3405 58.1857 45.355C58.2348 45.3695 58.2807 45.3935 58.3206 45.4258C58.3605 45.458 58.3937 45.4977 58.4182 45.5427C58.4427 45.5878 58.4582 45.6372 58.4636 45.6882C58.469 45.7392 58.4644 45.7907 58.4499 45.8399C58.4354 45.8891 58.4114 45.9349 58.3791 45.9748C58.3469 46.0147 58.3072 46.0479 58.2622 46.0724C57.9826 46.2251 57.7186 46.4045 57.4738 46.6082C57.4037 46.6664 57.3155 46.6983 57.2244 46.6983Z" fill="#FB9401"/>
<path d="M65.884 41.2289H58.0899C57.8235 41.2289 57.568 41.1231 57.3797 40.9347C57.1913 40.7463 57.0854 40.4908 57.0854 40.2244C57.0854 39.958 57.1913 39.7025 57.3797 39.5142C57.568 39.3258 57.8235 39.22 58.0899 39.22H65.884C66.1504 39.22 66.4059 39.3258 66.5942 39.5142C66.7826 39.7025 66.8884 39.958 66.8884 40.2244C66.8884 40.4908 66.7826 40.7463 66.5942 40.9347C66.4059 41.1231 66.1504 41.2289 65.884 41.2289Z" fill="#F9D42F"/>
<path d="M70.0231 33.4847C69.8455 33.4847 69.6752 33.4142 69.5496 33.2886C69.424 33.163 69.3535 32.9927 69.3535 32.8151V31.4758C69.3535 31.2982 69.424 31.1279 69.5496 31.0023C69.6752 30.8767 69.8455 30.8062 70.0231 30.8062C70.2007 30.8062 70.371 30.8767 70.4966 31.0023C70.6222 31.1279 70.6928 31.2982 70.6928 31.4758V32.8151C70.6928 32.9927 70.6222 33.163 70.4966 33.2886C70.371 33.4142 70.2007 33.4847 70.0231 33.4847Z" fill="#EDEDF9"/>
</g>
</g>
<defs>
<filter id="filter0_d_108_294" x="-8" y="0" width="150" height="150" filterUnits="userSpaceOnUse" color-interpolation-filters="sRGB">
<feFlood flood-opacity="0" result="BackgroundImageFix"/>
<feColorMatrix in="SourceAlpha" type="matrix" values="0 0 0 0 0 0 0 0 0 0 0 0 0 0 0 0 0 0 127 0" result="hardAlpha"/>
<feOffset dy="24"/>
<feGaussianBlur stdDeviation="20"/>
<feColorMatrix type="matrix" values="0 0 0 0 0 0 0 0 0 0 0 0 0 0 0 0 0 0 0.12 0"/>
<feBlend mode="normal" in2="BackgroundImageFix" result="effect1_dropShadow_108_294"/>
<feBlend mode="normal" in="SourceGraphic" in2="effect1_dropShadow_108_294" result="shape"/>
</filter>
<clipPath id="clip0_108_294">
<rect width="70" height="70" fill="white" transform="translate(32 16)"/>
</clipPath>
<clipPath id="clip1_108_294">
<rect width="25.6667" height="25.6667" fill="white" transform="translate(54.1667 28.8333)"/>
</clipPath>
</defs>
</svg>
