<svg width="92" height="102" viewBox="0 0 92 102" fill="none" xmlns="http://www.w3.org/2000/svg">
<g clip-path="url(#clip0_108_248)" filter="url(#filter0_d_108_248)">
<path d="M61.2121 15.9266C59.7357 11.1523 55.8473 7.26398 51.0731 5.7875C49.3996 5.27062 47.677 5 46.0035 5C42.5828 5 39.2853 6.0582 36.529 8.12547C32.4437 11.1277 30.0074 15.9266 30.0074 20.9961C30.0074 24.4905 31.1149 27.813 33.2067 30.5938L46.0035 47L58.8004 30.5938C61.9257 26.4102 62.8117 21.07 61.2121 15.9266ZM46.0035 29.6094C41.2539 29.6094 37.3903 25.7457 37.3903 20.9961C37.3903 16.2465 41.2539 12.3828 46.0035 12.3828C50.7532 12.3828 54.6168 16.2465 54.6168 20.9961C54.6168 25.7457 50.7532 29.6094 46.0035 29.6094Z" fill="#FF4415"/>
<path d="M58.8004 30.5938L46.0035 47V29.6094C50.7532 29.6094 54.6168 25.7457 54.6168 20.9961C54.6168 16.2465 50.7532 12.3828 46.0035 12.3828V5C47.677 5 49.3996 5.2707 51.0731 5.7875C55.8473 7.26398 59.7357 11.1523 61.2121 15.9266C62.8117 21.07 61.9257 26.4102 58.8004 30.5938Z" fill="#FF5F36"/>
<ellipse cx="46" cy="21.1" rx="11.9" ry="11.9" fill="white"/>
<g clip-path="url(#clip1_108_248)">
<path d="M48.8452 17.8541C48.8144 17.8542 48.7839 17.8481 48.7555 17.8363C48.727 17.8246 48.7012 17.8073 48.6794 17.7855C48.6576 17.7638 48.6404 17.7379 48.6286 17.7095C48.6168 17.681 48.6108 17.6505 48.6108 17.6198V15.4911C48.6106 15.3402 48.5506 15.1955 48.4439 15.0888C48.3372 14.9821 48.1925 14.9221 48.0416 14.9219H47.8139C47.7517 14.9219 47.6921 14.8972 47.6482 14.8532C47.6042 14.8093 47.5795 14.7497 47.5795 14.6875C47.5795 14.6253 47.6042 14.5657 47.6482 14.5218C47.6921 14.4778 47.7517 14.4531 47.8139 14.4531H48.0416C48.3168 14.4534 48.5806 14.5629 48.7752 14.7575C48.9698 14.9521 49.0792 15.2159 49.0795 15.4911V17.6198C49.0795 17.6819 49.0549 17.7415 49.0109 17.7855C48.9669 17.8294 48.9073 17.8541 48.8452 17.8541Z" fill="#385B60"/>
<path d="M38.7009 14.9141H42.7188V18.932H38.7009V14.9141Z" fill="#F5502F"/>
<path d="M38.7009 14.9141H42.7188V15.7176H38.7009V14.9141Z" fill="#F9D42F"/>
<path d="M51.9501 24.3289C51.9501 20.2958 50.4866 17.9688 50.4866 17.9688H49.3362L49.6295 20.3097C49.6925 20.8151 49.599 21.3277 49.3616 21.7783C49.1504 22.1796 48.8335 22.5156 48.4453 22.75C48.057 22.9844 47.6121 23.1083 47.1586 23.1083H46.0988C45.8955 23.1083 45.6997 23.0312 45.5509 22.8925C45.3365 22.6926 45.1967 22.4255 45.1546 22.1354C45.1125 21.8452 45.1707 21.5494 45.3195 21.2968L45.3329 21.2741C45.4627 21.0539 45.5312 20.803 45.5312 20.5474C45.5312 20.3343 45.4466 20.1299 45.2959 19.9792C45.1452 19.8285 44.9408 19.7439 44.7277 19.7439H42.0156C41.1631 19.7439 40.3455 20.0825 39.7427 20.6853C39.1399 21.2881 38.8013 22.1057 38.8013 22.9582V24.3289H51.9501Z" fill="#FF4415"/>
<path d="M51.609 18.4884L48.9241 18.1642V17.0704L51.5286 16.5625L51.609 18.4884Z" fill="#F9D42F"/>
<path d="M51.7333 18.6642C51.6267 18.6642 51.5245 18.6218 51.4492 18.5465C51.3738 18.4711 51.3315 18.3689 51.3315 18.2624V16.6552C51.3315 16.5486 51.3738 16.4464 51.4492 16.3711C51.5245 16.2957 51.6267 16.2534 51.7333 16.2534C51.8398 16.2534 51.942 16.2957 52.0174 16.3711C52.0927 16.4464 52.1351 16.5486 52.1351 16.6552V18.2624C52.1351 18.3689 52.0927 18.4711 52.0174 18.5465C51.942 18.6218 51.8398 18.6642 51.7333 18.6642Z" fill="#FB9401"/>
<path d="M48.8452 18.2225C49.178 18.2225 49.4479 17.9526 49.4479 17.6198C49.4479 17.2869 49.178 17.0171 48.8452 17.0171C48.5123 17.0171 48.2425 17.2869 48.2425 17.6198C48.2425 17.9526 48.5123 18.2225 48.8452 18.2225Z" fill="#537980"/>
<path d="M51.0559 26.9161C52.1306 26.9161 53.0018 26.045 53.0018 24.9703C53.0018 23.8956 52.1306 23.0244 51.0559 23.0244C49.9812 23.0244 49.11 23.8956 49.11 24.9703C49.11 26.045 49.9812 26.9161 51.0559 26.9161Z" fill="#537980"/>
<path d="M51.0559 26.1127C50.83 26.1127 50.6091 26.0457 50.4213 25.9202C50.2334 25.7947 50.087 25.6162 50.0006 25.4075C49.9141 25.1988 49.8915 24.9691 49.9356 24.7475C49.9797 24.5259 50.0885 24.3224 50.2483 24.1626C50.408 24.0029 50.6116 23.8941 50.8332 23.8501C51.0547 23.806 51.2844 23.8286 51.4932 23.9151C51.7019 24.0016 51.8803 24.148 52.0058 24.3359C52.1313 24.5238 52.1982 24.7446 52.1982 24.9705C52.1979 25.2734 52.0774 25.5637 51.8632 25.7778C51.6491 25.9919 51.3588 26.1124 51.0559 26.1127Z" fill="#EDEDF9"/>
<path d="M48.8144 25.1341C48.7566 25.1345 48.6994 25.1224 48.6467 25.0986C48.5941 25.0748 48.5472 25.0398 48.5094 24.9961C48.4715 24.9524 48.4437 24.901 48.4277 24.8455C48.4116 24.7899 48.4079 24.7316 48.4167 24.6744C48.5243 24.0525 48.8481 23.4885 49.331 23.082C49.8139 22.6755 50.4248 22.4526 51.056 22.4526C51.6872 22.4526 52.2981 22.6755 52.781 23.082C53.2639 23.4885 53.5877 24.0525 53.6954 24.6744C53.7042 24.7316 53.7004 24.7899 53.6844 24.8455C53.6684 24.901 53.6405 24.9524 53.6027 24.9961C53.5649 25.0398 53.518 25.0748 53.4653 25.0986C53.4126 25.1224 53.3554 25.1345 53.2976 25.1341H48.8144Z" fill="#F9D42F"/>
<path d="M41.2399 26.9161C42.3145 26.9161 43.1857 26.045 43.1857 24.9703C43.1857 23.8956 42.3145 23.0244 41.2399 23.0244C40.1652 23.0244 39.294 23.8956 39.294 24.9703C39.294 26.045 40.1652 26.9161 41.2399 26.9161Z" fill="#537980"/>
<path d="M41.2399 26.1127C41.014 26.1127 40.7931 26.0457 40.6052 25.9202C40.4174 25.7947 40.271 25.6162 40.1845 25.4075C40.0981 25.1988 40.0755 24.9691 40.1196 24.7475C40.1636 24.5259 40.2724 24.3224 40.4322 24.1626C40.592 24.0029 40.7955 23.8941 41.0171 23.8501C41.2387 23.806 41.4684 23.8286 41.6771 23.9151C41.8858 24.0016 42.0642 24.148 42.1897 24.3359C42.3152 24.5238 42.3822 24.7446 42.3822 24.9705C42.3818 25.2734 42.2613 25.5637 42.0472 25.7778C41.8331 25.9919 41.5427 26.1124 41.2399 26.1127Z" fill="#EDEDF9"/>
<path d="M44.0474 25.1339H38.7008C38.6396 25.1337 38.5792 25.1196 38.5243 25.0926C38.4694 25.0656 38.4214 25.0264 38.3839 24.978C38.3464 24.9296 38.3205 24.8733 38.3081 24.8134C38.2957 24.7534 38.2972 24.6914 38.3124 24.6321C38.519 23.8307 38.9706 23.1137 39.6042 22.5812C40.2377 22.0487 41.0217 21.7272 41.8467 21.6616C42.2423 21.6302 42.6397 21.6939 43.0057 21.8474C43.3717 22.0008 43.6958 22.2395 43.9508 22.5436C44.2058 22.8477 44.3844 23.2083 44.4718 23.5955C44.5591 23.9826 44.5526 24.385 44.4528 24.7692L44.4362 24.8332C44.4138 24.9193 44.3635 24.9955 44.2932 25.0499C44.2228 25.1043 44.1364 25.1338 44.0474 25.1339Z" fill="#F9D42F"/>
<path d="M40.1346 23.419C40.0863 23.4192 40.0391 23.4044 39.9995 23.3767C39.9599 23.349 39.9299 23.3097 39.9135 23.2642C39.897 23.2188 39.8951 23.1694 39.9079 23.1228C39.9206 23.0761 39.9475 23.0346 39.9848 23.0039C40.1551 22.8625 40.3387 22.738 40.5331 22.6321C40.5601 22.6174 40.5898 22.6081 40.6203 22.6048C40.6509 22.6016 40.6819 22.6044 40.7114 22.6131C40.7409 22.6218 40.7684 22.6362 40.7923 22.6555C40.8163 22.6748 40.8362 22.6987 40.8509 22.7257C40.8656 22.7527 40.8749 22.7824 40.8781 22.813C40.8814 22.8435 40.8786 22.8745 40.8699 22.904C40.8612 22.9335 40.8468 22.961 40.8275 22.985C40.8082 23.0089 40.7843 23.0288 40.7573 23.0435C40.5896 23.1351 40.4312 23.2427 40.2842 23.3649C40.2422 23.3999 40.1893 23.419 40.1346 23.419Z" fill="#FB9401"/>
<path d="M45.3303 20.1375H40.6539C40.4941 20.1375 40.3408 20.074 40.2277 19.961C40.1147 19.848 40.0512 19.6947 40.0512 19.5348C40.0512 19.375 40.1147 19.2217 40.2277 19.1087C40.3408 18.9956 40.4941 18.9321 40.6539 18.9321H45.3303C45.4902 18.9321 45.6435 18.9956 45.7565 19.1087C45.8695 19.2217 45.933 19.375 45.933 19.5348C45.933 19.6947 45.8695 19.848 45.7565 19.961C45.6435 20.074 45.4902 20.1375 45.3303 20.1375Z" fill="#F9D42F"/>
<path d="M47.8138 15.4909C47.7073 15.4909 47.6051 15.4486 47.5297 15.3733C47.4544 15.2979 47.412 15.1957 47.412 15.0892V14.2856C47.412 14.179 47.4544 14.0768 47.5297 14.0015C47.6051 13.9261 47.7073 13.8838 47.8138 13.8838C47.9204 13.8838 48.0226 13.9261 48.0979 14.0015C48.1733 14.0768 48.2156 14.179 48.2156 14.2856V15.0892C48.2156 15.1957 48.1733 15.2979 48.0979 15.3733C48.0226 15.4486 47.9204 15.4909 47.8138 15.4909Z" fill="#EDEDF9"/>
</g>
</g>
<defs>
<filter id="filter0_d_108_248" x="-5" y="0" width="102" height="102" filterUnits="userSpaceOnUse" color-interpolation-filters="sRGB">
<feFlood flood-opacity="0" result="BackgroundImageFix"/>
<feColorMatrix in="SourceAlpha" type="matrix" values="0 0 0 0 0 0 0 0 0 0 0 0 0 0 0 0 0 0 127 0" result="hardAlpha"/>
<feOffset dy="25"/>
<feGaussianBlur stdDeviation="15"/>
<feColorMatrix type="matrix" values="0 0 0 0 0 0 0 0 0 0 0 0 0 0 0 0 0 0 0.08 0"/>
<feBlend mode="normal" in2="BackgroundImageFix" result="effect1_dropShadow_108_248"/>
<feBlend mode="normal" in="SourceGraphic" in2="effect1_dropShadow_108_248" result="shape"/>
</filter>
<clipPath id="clip0_108_248">
<rect width="42" height="42" fill="white" transform="translate(25 5)"/>
</clipPath>
<clipPath id="clip1_108_248">
<rect width="15.4" height="15.4" fill="white" transform="translate(38.3 12.7)"/>
</clipPath>
</defs>
</svg>
