<svg width="98" height="108" viewBox="0 0 98 108" fill="none" xmlns="http://www.w3.org/2000/svg">
<g clip-path="url(#clip0_108_202)" filter="url(#filter0_d_108_202)">
<path d="M66.3853 17.4875C64.6979 12.0312 60.254 7.58741 54.7978 5.9C52.8853 5.30928 50.9165 5 49.004 5C45.0947 5 41.326 6.20938 38.176 8.57197C33.5071 12.0031 30.7228 17.4875 30.7228 23.2812C30.7228 27.2749 31.9884 31.072 34.379 34.2501L49.004 53L63.629 34.2501C67.2008 29.4688 68.2134 23.3657 66.3853 17.4875ZM49.004 33.125C43.5759 33.125 39.1603 28.7094 39.1603 23.2812C39.1603 17.8531 43.5759 13.4375 49.004 13.4375C54.4322 13.4375 58.8478 17.8531 58.8478 23.2812C58.8478 28.7094 54.4322 33.125 49.004 33.125Z" fill="#FF4415"/>
<path d="M63.629 34.2501L49.004 53V33.125C54.4322 33.125 58.8478 28.7094 58.8478 23.2812C58.8478 17.8531 54.4322 13.4375 49.004 13.4375V5C50.9165 5 52.8853 5.30938 54.7978 5.9C60.254 7.58741 64.6979 12.0312 66.3853 17.4875C68.2134 23.3657 67.2008 29.4688 63.629 34.2501Z" fill="#FF5F36"/>
<ellipse cx="49" cy="23.4" rx="13.6" ry="13.6" fill="white"/>
<g clip-path="url(#clip1_108_202)">
<path d="M52.2517 19.6903C52.2165 19.6904 52.1817 19.6834 52.1492 19.67C52.1166 19.6565 52.0871 19.6368 52.0622 19.6119C52.0374 19.5871 52.0176 19.5575 52.0042 19.525C51.9907 19.4925 51.9838 19.4577 51.9838 19.4225V16.9897C51.9836 16.8172 51.915 16.6519 51.7931 16.5299C51.6711 16.408 51.5058 16.3394 51.3333 16.3392H51.0731C51.0021 16.3392 50.9339 16.311 50.8837 16.2607C50.8335 16.2105 50.8052 16.1424 50.8052 16.0713C50.8052 16.0003 50.8335 15.9322 50.8837 15.8819C50.9339 15.8317 51.0021 15.8035 51.0731 15.8035H51.3333C51.6478 15.8038 51.9493 15.9289 52.1717 16.1513C52.3941 16.3737 52.5192 16.6752 52.5195 16.9897V19.4225C52.5195 19.4935 52.4913 19.5617 52.4411 19.6119C52.3909 19.6621 52.3227 19.6903 52.2517 19.6903Z" fill="#385B60"/>
<path d="M40.6581 16.3303H45.25V20.9222H40.6581V16.3303Z" fill="#F5502F"/>
<path d="M40.6581 16.3303H45.25V17.2487H40.6581V16.3303Z" fill="#F9D42F"/>
<path d="M55.8002 27.0901C55.8002 22.4808 54.1277 19.8213 54.1277 19.8213H52.8129L53.1481 22.4967C53.2201 23.0743 53.1132 23.66 52.8419 24.175C52.6005 24.6337 52.2384 25.0177 51.7947 25.2855C51.351 25.5534 50.8425 25.695 50.3242 25.6951H49.113C48.8806 25.6951 48.6569 25.607 48.4868 25.4485C48.2418 25.22 48.082 24.9147 48.0339 24.5831C47.9858 24.2515 48.0523 23.9134 48.2224 23.6247L48.2377 23.5989C48.386 23.3472 48.4643 23.0605 48.4643 22.7684C48.4643 22.5248 48.3676 22.2912 48.1954 22.119C48.0231 21.9467 47.7895 21.85 47.546 21.85H44.4465C43.4722 21.85 42.5378 22.237 41.8489 22.9259C41.16 23.6148 40.7729 24.5492 40.7729 25.5235V27.0901H55.8002Z" fill="#FF4415"/>
<path d="M55.4103 20.4152L52.3419 20.0446V18.7945L55.3185 18.2141L55.4103 20.4152Z" fill="#F9D42F"/>
<path d="M55.5523 20.6162C55.4305 20.6162 55.3137 20.5678 55.2276 20.4817C55.1415 20.3956 55.0931 20.2788 55.0931 20.157V18.3203C55.0931 18.1985 55.1415 18.0817 55.2276 17.9956C55.3137 17.9095 55.4305 17.8611 55.5523 17.8611C55.6741 17.8611 55.7909 17.9095 55.877 17.9956C55.9631 18.0817 56.0115 18.1985 56.0115 18.3203V20.157C56.0115 20.2788 55.9631 20.3956 55.877 20.4817C55.7909 20.5678 55.6741 20.6162 55.5523 20.6162Z" fill="#FB9401"/>
<path d="M52.2516 20.1112C52.6321 20.1112 52.9404 19.8028 52.9404 19.4224C52.9404 19.042 52.6321 18.7336 52.2516 18.7336C51.8712 18.7336 51.5629 19.042 51.5629 19.4224C51.5629 19.8028 51.8712 20.1112 52.2516 20.1112Z" fill="#537980"/>
<path d="M54.7783 30.0471C56.0065 30.0471 57.0021 29.0514 57.0021 27.8232C57.0021 26.595 56.0065 25.5994 54.7783 25.5994C53.5501 25.5994 52.5544 26.595 52.5544 27.8232C52.5544 29.0514 53.5501 30.0471 54.7783 30.0471Z" fill="#537980"/>
<path d="M54.7783 29.1288C54.52 29.1288 54.2676 29.0522 54.053 28.9087C53.8383 28.7653 53.6709 28.5614 53.5721 28.3228C53.4733 28.0843 53.4475 27.8218 53.4979 27.5686C53.5483 27.3153 53.6726 27.0827 53.8552 26.9001C54.0378 26.7176 54.2704 26.5932 54.5237 26.5429C54.7769 26.4925 55.0394 26.5184 55.2779 26.6172C55.5165 26.7161 55.7204 26.8834 55.8638 27.0981C56.0072 27.3128 56.0838 27.5652 56.0837 27.8234C56.0833 28.1695 55.9456 28.5013 55.7009 28.7461C55.4562 28.9908 55.1243 29.1284 54.7783 29.1288Z" fill="#EDEDF9"/>
<path d="M52.2166 28.0103C52.1505 28.0108 52.0851 27.997 52.0249 27.9698C51.9647 27.9426 51.9112 27.9026 51.8679 27.8527C51.8247 27.8027 51.7928 27.7439 51.7745 27.6805C51.7563 27.617 51.752 27.5503 51.762 27.485C51.885 26.7742 52.2551 26.1297 52.807 25.6651C53.3588 25.2005 54.057 24.9458 54.7784 24.9458C55.4998 24.9458 56.198 25.2005 56.7498 25.6651C57.3017 26.1297 57.6718 26.7742 57.7948 27.485C57.8048 27.5503 57.8005 27.617 57.7823 27.6805C57.764 27.7439 57.7321 27.8027 57.6889 27.8527C57.6456 27.9026 57.5921 27.9426 57.5319 27.9698C57.4717 27.997 57.4063 28.0108 57.3402 28.0103H52.2166Z" fill="#F9D42F"/>
<path d="M43.56 30.0471C44.7882 30.0471 45.7838 29.0514 45.7838 27.8232C45.7838 26.595 44.7882 25.5994 43.56 25.5994C42.3318 25.5994 41.3361 26.595 41.3361 27.8232C41.3361 29.0514 42.3318 30.0471 43.56 30.0471Z" fill="#537980"/>
<path d="M43.5599 29.1288C43.3017 29.1288 43.0493 29.0522 42.8346 28.9087C42.6199 28.7653 42.4526 28.5614 42.3538 28.3228C42.255 28.0843 42.2291 27.8218 42.2795 27.5686C42.3299 27.3153 42.4542 27.0827 42.6368 26.9001C42.8194 26.7176 43.052 26.5932 43.3053 26.5429C43.5585 26.4925 43.821 26.5184 44.0596 26.6172C44.2981 26.7161 44.502 26.8834 44.6454 27.0981C44.7888 27.3128 44.8654 27.5652 44.8653 27.8234C44.8649 28.1695 44.7273 28.5013 44.4825 28.7461C44.2378 28.9908 43.906 29.1284 43.5599 29.1288Z" fill="#EDEDF9"/>
<path d="M46.7685 28.0099H40.6581C40.5882 28.0098 40.5192 27.9937 40.4564 27.9628C40.3936 27.9319 40.3387 27.8871 40.2959 27.8318C40.2531 27.7765 40.2235 27.7121 40.2093 27.6436C40.1952 27.5751 40.1969 27.5043 40.2143 27.4365C40.4504 26.5206 40.9664 25.7012 41.6905 25.0926C42.4146 24.4841 43.3105 24.1166 44.2534 24.0416C44.7056 24.0058 45.1597 24.0786 45.578 24.2539C45.9963 24.4293 46.3667 24.7021 46.6581 25.0496C46.9496 25.3971 47.1537 25.8093 47.2535 26.2518C47.3533 26.6942 47.3459 27.1541 47.2319 27.5931L47.2129 27.6663C47.1873 27.7647 47.1298 27.8518 47.0494 27.914C46.969 27.9761 46.8702 28.0099 46.7685 28.0099Z" fill="#F9D42F"/>
<path d="M42.2968 26.0504C42.2415 26.0506 42.1876 26.0337 42.1423 26.002C42.0971 25.9704 42.0627 25.9255 42.044 25.8735C42.0252 25.8216 42.023 25.7651 42.0376 25.7118C42.0522 25.6586 42.0829 25.6111 42.1255 25.576C42.3201 25.4144 42.53 25.2721 42.7521 25.151C42.783 25.1342 42.8169 25.1236 42.8519 25.1199C42.8868 25.1162 42.9222 25.1194 42.9559 25.1293C42.9896 25.1393 43.0211 25.1557 43.0484 25.1778C43.0758 25.1999 43.0985 25.2272 43.1154 25.258C43.1322 25.2889 43.1428 25.3228 43.1465 25.3578C43.1502 25.3927 43.147 25.4281 43.1371 25.4618C43.1271 25.4955 43.1107 25.527 43.0886 25.5543C43.0665 25.5817 43.0392 25.6044 43.0084 25.6213C42.8167 25.7259 42.6356 25.849 42.4677 25.9886C42.4197 26.0285 42.3592 26.0504 42.2968 26.0504Z" fill="#FB9401"/>
<path d="M48.2347 22.2999H42.8903C42.7076 22.2999 42.5324 22.2274 42.4032 22.0982C42.274 21.969 42.2015 21.7938 42.2015 21.6111C42.2015 21.4285 42.274 21.2533 42.4032 21.1241C42.5324 20.9949 42.7076 20.9224 42.8903 20.9224H48.2347C48.4174 20.9224 48.5926 20.9949 48.7218 21.1241C48.851 21.2533 48.9235 21.4285 48.9235 21.6111C48.9235 21.7938 48.851 21.969 48.7218 22.0982C48.5926 22.2274 48.4174 22.2999 48.2347 22.2999Z" fill="#F9D42F"/>
<path d="M51.073 16.9896C50.9512 16.9896 50.8344 16.9412 50.7483 16.8551C50.6622 16.769 50.6138 16.6522 50.6138 16.5304V15.612C50.6138 15.4902 50.6622 15.3734 50.7483 15.2873C50.8344 15.2012 50.9512 15.1528 51.073 15.1528C51.1948 15.1528 51.3116 15.2012 51.3977 15.2873C51.4838 15.3734 51.5322 15.4902 51.5322 15.612V16.5304C51.5322 16.6522 51.4838 16.769 51.3977 16.8551C51.3116 16.9412 51.1948 16.9896 51.073 16.9896Z" fill="#EDEDF9"/>
</g>
</g>
<defs>
<filter id="filter0_d_108_202" x="-5" y="0" width="108" height="108" filterUnits="userSpaceOnUse" color-interpolation-filters="sRGB">
<feFlood flood-opacity="0" result="BackgroundImageFix"/>
<feColorMatrix in="SourceAlpha" type="matrix" values="0 0 0 0 0 0 0 0 0 0 0 0 0 0 0 0 0 0 127 0" result="hardAlpha"/>
<feOffset dy="25"/>
<feGaussianBlur stdDeviation="15"/>
<feColorMatrix type="matrix" values="0 0 0 0 0 0 0 0 0 0 0 0 0 0 0 0 0 0 0.08 0"/>
<feBlend mode="normal" in2="BackgroundImageFix" result="effect1_dropShadow_108_202"/>
<feBlend mode="normal" in="SourceGraphic" in2="effect1_dropShadow_108_202" result="shape"/>
</filter>
<clipPath id="clip0_108_202">
<rect width="48" height="48" fill="white" transform="translate(25 5)"/>
</clipPath>
<clipPath id="clip1_108_202">
<rect width="17.6" height="17.6" fill="white" transform="translate(40.2 13.8)"/>
</clipPath>
</defs>
</svg>
