<svg width="92" height="100" viewBox="0 0 92 100" fill="none" xmlns="http://www.w3.org/2000/svg">
<g clip-path="url(#clip0_108_271)" filter="url(#filter0_d_108_271)">
<path d="M60.4878 15.4062C59.0816 10.8594 55.3784 7.15617 50.8315 5.75C49.2378 5.25773 47.5972 5 46.0034 5C42.7456 5 39.6051 6.00781 36.9801 7.97664C33.0893 10.8359 30.769 15.4062 30.769 20.2344C30.769 23.5624 31.8237 26.7266 33.8159 29.3751L46.0034 45L58.1909 29.3751C61.1674 25.3906 62.0112 20.3048 60.4878 15.4062ZM46.0034 28.4375C41.48 28.4375 37.8003 24.7578 37.8003 20.2344C37.8003 15.7109 41.48 12.0312 46.0034 12.0312C50.5269 12.0312 54.2065 15.7109 54.2065 20.2344C54.2065 24.7578 50.5269 28.4375 46.0034 28.4375Z" fill="#FF4415"/>
<path d="M58.1909 29.3751L46.0034 45V28.4375C50.5269 28.4375 54.2065 24.7578 54.2065 20.2344C54.2065 15.7109 50.5269 12.0312 46.0034 12.0312V5C47.5972 5 49.2378 5.25781 50.8315 5.75C55.3784 7.15617 59.0816 10.8594 60.4878 15.4062C62.0112 20.3048 61.1674 25.3906 58.1909 29.3751Z" fill="#FF5F36"/>
<circle cx="46" cy="20.3333" r="11.3333" fill="white"/>
<g clip-path="url(#clip1_108_271)">
<path d="M48.7098 17.242C48.6804 17.242 48.6514 17.2362 48.6243 17.225C48.5972 17.2138 48.5726 17.1974 48.5519 17.1766C48.5312 17.1559 48.5147 17.1313 48.5035 17.1042C48.4923 17.0771 48.4865 17.0481 48.4865 17.0188V14.9915C48.4864 14.8477 48.4292 14.71 48.3276 14.6083C48.226 14.5067 48.0882 14.4495 47.9445 14.4494H47.7276C47.6684 14.4494 47.6116 14.4258 47.5698 14.384C47.5279 14.3421 47.5044 14.2853 47.5044 14.2261C47.5044 14.1669 47.5279 14.1102 47.5698 14.0683C47.6116 14.0264 47.6684 14.0029 47.7276 14.0029H47.9445C48.2065 14.0032 48.4578 14.1075 48.6431 14.2928C48.8284 14.4781 48.9327 14.7294 48.933 14.9915V17.0188C48.933 17.078 48.9095 17.1348 48.8676 17.1766C48.8257 17.2185 48.769 17.242 48.7098 17.242Z" fill="#385B60"/>
<path d="M39.0485 14.4419H42.875V18.2685H39.0485V14.4419Z" fill="#F5502F"/>
<path d="M39.0485 14.4419H42.875V15.2072H39.0485V14.4419Z" fill="#F9D42F"/>
<path d="M51.6667 23.4084C51.6667 19.5673 50.273 17.3511 50.273 17.3511H49.1773L49.4566 19.5806C49.5167 20.0619 49.4276 20.55 49.2015 20.9792C49.0003 21.3614 48.6986 21.6814 48.3288 21.9046C47.9591 22.1279 47.5354 22.2459 47.1034 22.2459H46.0941C45.9004 22.2459 45.714 22.1725 45.5723 22.0404C45.368 21.85 45.2349 21.5956 45.1948 21.3193C45.1547 21.0429 45.2101 20.7612 45.3519 20.5206L45.3646 20.4991C45.4882 20.2894 45.5535 20.0504 45.5535 19.807C45.5535 19.604 45.4729 19.4093 45.3294 19.2658C45.1859 19.1223 44.9912 19.0417 44.7882 19.0417H42.2053C41.3934 19.0417 40.6148 19.3642 40.0407 19.9383C39.4666 20.5124 39.144 21.291 39.144 22.1029V23.4084H51.6667Z" fill="#FF4415"/>
<path d="M51.342 17.8459L48.7849 17.5371V16.4954L51.2654 16.0117L51.342 17.8459Z" fill="#F9D42F"/>
<path d="M51.4603 18.0135C51.3588 18.0135 51.2615 17.9732 51.1897 17.9014C51.118 17.8296 51.0776 17.7323 51.0776 17.6308V16.1002C51.0776 15.9987 51.118 15.9014 51.1897 15.8296C51.2615 15.7578 51.3588 15.7175 51.4603 15.7175C51.5618 15.7175 51.6591 15.7578 51.7309 15.8296C51.8026 15.9014 51.843 15.9987 51.843 16.1002V17.6308C51.843 17.7323 51.8026 17.8296 51.7309 17.9014C51.6591 17.9732 51.5618 18.0135 51.4603 18.0135Z" fill="#FB9401"/>
<path d="M48.7097 17.5928C49.0267 17.5928 49.2837 17.3358 49.2837 17.0188C49.2837 16.7018 49.0267 16.4448 48.7097 16.4448C48.3927 16.4448 48.1357 16.7018 48.1357 17.0188C48.1357 17.3358 48.3927 17.5928 48.7097 17.5928Z" fill="#537980"/>
<path d="M50.8152 25.8727C51.8387 25.8727 52.6684 25.043 52.6684 24.0195C52.6684 22.996 51.8387 22.1663 50.8152 22.1663C49.7917 22.1663 48.962 22.996 48.962 24.0195C48.962 25.043 49.7917 25.8727 50.8152 25.8727Z" fill="#537980"/>
<path d="M50.8152 25.1072C50.6 25.1072 50.3897 25.0434 50.2108 24.9238C50.0319 24.8043 49.8924 24.6344 49.8101 24.4356C49.7278 24.2368 49.7062 24.018 49.7482 23.807C49.7902 23.596 49.8938 23.4021 50.046 23.25C50.1981 23.0978 50.392 22.9942 50.603 22.9523C50.8141 22.9103 51.0328 22.9319 51.2316 23.0142C51.4304 23.0966 51.6003 23.2361 51.7198 23.415C51.8393 23.5939 51.9031 23.8042 51.9031 24.0194C51.9027 24.3078 51.788 24.5843 51.5841 24.7883C51.3801 24.9922 51.1036 25.1069 50.8152 25.1072Z" fill="#EDEDF9"/>
<path d="M48.6805 24.1751C48.6254 24.1755 48.5709 24.164 48.5208 24.1413C48.4706 24.1187 48.4259 24.0853 48.3899 24.0437C48.3539 24.0021 48.3273 23.9531 48.3121 23.9002C48.2969 23.8473 48.2933 23.7917 48.3016 23.7373C48.4042 23.145 48.7126 22.6079 49.1725 22.2208C49.6323 21.8336 50.2142 21.6213 50.8153 21.6213C51.4165 21.6213 51.9983 21.8336 52.4582 22.2208C52.9181 22.6079 53.2265 23.145 53.329 23.7373C53.3373 23.7917 53.3338 23.8473 53.3185 23.9002C53.3033 23.9531 53.2767 24.0021 53.2407 24.0437C53.2047 24.0853 53.16 24.1187 53.1099 24.1413C53.0597 24.164 53.0052 24.1755 52.9502 24.1751H48.6805Z" fill="#F9D42F"/>
<path d="M41.4666 25.8727C42.4901 25.8727 43.3198 25.043 43.3198 24.0195C43.3198 22.996 42.4901 22.1663 41.4666 22.1663C40.4431 22.1663 39.6134 22.996 39.6134 24.0195C39.6134 25.043 40.4431 25.8727 41.4666 25.8727Z" fill="#537980"/>
<path d="M41.4666 25.1072C41.2514 25.1072 41.041 25.0434 40.8621 24.9238C40.6832 24.8043 40.5438 24.6344 40.4615 24.4356C40.3791 24.2368 40.3576 24.018 40.3996 23.807C40.4416 23.596 40.5452 23.4021 40.6973 23.25C40.8495 23.0978 41.0434 22.9942 41.2544 22.9523C41.4654 22.9103 41.6842 22.9319 41.883 23.0142C42.0817 23.0966 42.2516 23.2361 42.3712 23.415C42.4907 23.5939 42.5545 23.8042 42.5544 24.0194C42.5541 24.3078 42.4394 24.5843 42.2354 24.7883C42.0315 24.9922 41.755 25.1069 41.4666 25.1072Z" fill="#EDEDF9"/>
<path d="M44.1404 24.1749H39.0484C38.9901 24.1748 38.9326 24.1614 38.8803 24.1357C38.828 24.1099 38.7823 24.0726 38.7466 24.0265C38.7109 23.9804 38.6862 23.9268 38.6744 23.8697C38.6626 23.8126 38.664 23.7536 38.6785 23.6971C38.8753 22.9338 39.3053 22.251 39.9087 21.7439C40.5121 21.2367 41.2588 20.9305 42.0445 20.868C42.4213 20.8382 42.7998 20.8988 43.1483 21.0449C43.4969 21.1911 43.8055 21.4184 44.0484 21.708C44.2913 21.9976 44.4614 22.3411 44.5446 22.7098C44.6277 23.0785 44.6216 23.4618 44.5265 23.8276L44.5107 23.8886C44.4894 23.9706 44.4415 24.0431 44.3745 24.095C44.3075 24.1468 44.2251 24.1749 44.1404 24.1749Z" fill="#F9D42F"/>
<path d="M40.414 22.5418C40.3679 22.542 40.323 22.5279 40.2853 22.5015C40.2476 22.4751 40.219 22.4377 40.2033 22.3944C40.1877 22.3511 40.1858 22.304 40.198 22.2597C40.2102 22.2153 40.2357 22.1757 40.2712 22.1464C40.4335 22.0118 40.6083 21.8932 40.7934 21.7923C40.8192 21.7783 40.8474 21.7695 40.8765 21.7664C40.9057 21.7633 40.9351 21.7659 40.9633 21.7742C40.9914 21.7825 41.0176 21.7962 41.0404 21.8146C41.0632 21.8331 41.0821 21.8558 41.0961 21.8815C41.1101 21.9072 41.119 21.9355 41.1221 21.9646C41.1252 21.9937 41.1225 22.0232 41.1142 22.0513C41.106 22.0794 41.0922 22.1056 41.0738 22.1284C41.0554 22.1512 41.0327 22.1702 41.007 22.1842C40.8472 22.2714 40.6964 22.3739 40.5565 22.4903C40.5164 22.5236 40.466 22.5418 40.414 22.5418Z" fill="#FB9401"/>
<path d="M45.3622 19.4165H40.9085C40.7562 19.4165 40.6102 19.3561 40.5026 19.2484C40.3949 19.1408 40.3345 18.9948 40.3345 18.8425C40.3345 18.6903 40.3949 18.5443 40.5026 18.4367C40.6102 18.329 40.7562 18.2686 40.9085 18.2686H45.3622C45.5144 18.2686 45.6604 18.329 45.7681 18.4367C45.8757 18.5443 45.9362 18.6903 45.9362 18.8425C45.9362 18.9948 45.8757 19.1408 45.7681 19.2484C45.6604 19.3561 45.5144 19.4165 45.3622 19.4165Z" fill="#F9D42F"/>
<path d="M47.7275 14.9913C47.626 14.9913 47.5287 14.951 47.4569 14.8792C47.3852 14.8075 47.3448 14.7102 47.3448 14.6087V13.8434C47.3448 13.7419 47.3852 13.6445 47.4569 13.5728C47.5287 13.501 47.626 13.4607 47.7275 13.4607C47.829 13.4607 47.9263 13.501 47.9981 13.5728C48.0698 13.6445 48.1102 13.7419 48.1102 13.8434V14.6087C48.1102 14.7102 48.0698 14.8075 47.9981 14.8792C47.9263 14.951 47.829 14.9913 47.7275 14.9913Z" fill="#EDEDF9"/>
</g>
</g>
<defs>
<filter id="filter0_d_108_271" x="-4" y="0" width="100" height="100" filterUnits="userSpaceOnUse" color-interpolation-filters="sRGB">
<feFlood flood-opacity="0" result="BackgroundImageFix"/>
<feColorMatrix in="SourceAlpha" type="matrix" values="0 0 0 0 0 0 0 0 0 0 0 0 0 0 0 0 0 0 127 0" result="hardAlpha"/>
<feOffset dy="25"/>
<feGaussianBlur stdDeviation="15"/>
<feColorMatrix type="matrix" values="0 0 0 0 0 0 0 0 0 0 0 0 0 0 0 0 0 0 0.08 0"/>
<feBlend mode="normal" in2="BackgroundImageFix" result="effect1_dropShadow_108_271"/>
<feBlend mode="normal" in="SourceGraphic" in2="effect1_dropShadow_108_271" result="shape"/>
</filter>
<clipPath id="clip0_108_271">
<rect width="40" height="40" fill="white" transform="translate(26 5)"/>
</clipPath>
<clipPath id="clip1_108_271">
<rect width="14.6667" height="14.6667" fill="white" transform="translate(38.6666 12.3333)"/>
</clipPath>
</defs>
</svg>
