<svg width="80" height="84" viewBox="0 0 80 84" fill="none" xmlns="http://www.w3.org/2000/svg">
<g clip-path="url(#clip0_108_179)" filter="url(#filter0_d_108_179)">
<path d="M48.6927 11.2437C47.849 8.51562 45.6271 6.2937 42.899 5.45C41.9427 5.15464 40.9583 5 40.0021 5C38.0474 5 36.1631 5.60469 34.5881 6.78598C32.2536 8.50156 30.8615 11.2438 30.8615 14.1406C30.8615 16.1375 31.4943 18.036 32.6896 19.625L40.0021 29L47.3146 19.625C49.1005 17.2344 49.6068 14.1829 48.6927 11.2437ZM40.0021 19.0625C37.288 19.0625 35.0802 16.8547 35.0802 14.1406C35.0802 11.4266 37.288 9.21875 40.0021 9.21875C42.7161 9.21875 44.924 11.4266 44.924 14.1406C44.924 16.8547 42.7161 19.0625 40.0021 19.0625Z" fill="#FF4415"/>
<path d="M47.3146 19.625L40.0021 29V19.0625C42.7161 19.0625 44.924 16.8547 44.924 14.1406C44.924 11.4266 42.7161 9.21875 40.0021 9.21875V5C40.9583 5 41.9427 5.15469 42.899 5.45C45.6271 6.2937 47.849 8.51562 48.6927 11.2437C49.6068 14.1829 49.1005 17.2344 47.3146 19.625Z" fill="#FF5F36"/>
<ellipse cx="40" cy="14.1999" rx="6.8" ry="6.8" fill="white"/>
<g clip-path="url(#clip1_108_179)">
<path d="M41.6258 12.345C41.6082 12.3451 41.5908 12.3416 41.5745 12.3349C41.5583 12.3281 41.5435 12.3183 41.5311 12.3058C41.5186 12.2934 41.5088 12.2786 41.5021 12.2624C41.4953 12.2461 41.4919 12.2287 41.4919 12.2111V10.9947C41.4918 10.9085 41.4575 10.8258 41.3965 10.7648C41.3355 10.7039 41.2529 10.6696 41.1666 10.6695H41.0365C41.001 10.6695 40.9669 10.6554 40.9418 10.6302C40.9167 10.6051 40.9026 10.5711 40.9026 10.5355C40.9026 10.5 40.9167 10.466 40.9418 10.4408C40.9669 10.4157 41.001 10.4016 41.0365 10.4016H41.1666C41.3239 10.4018 41.4746 10.4643 41.5858 10.5755C41.697 10.6867 41.7596 10.8375 41.7597 10.9947V12.2111C41.7597 12.2466 41.7456 12.2807 41.7205 12.3058C41.6954 12.3309 41.6613 12.345 41.6258 12.345Z" fill="#385B60"/>
<path d="M35.829 10.6653H38.1249V12.9612H35.829V10.6653Z" fill="#F5502F"/>
<path d="M35.829 10.6653H38.1249V11.1245H35.829V10.6653Z" fill="#F9D42F"/>
<path d="M43.4 16.045C43.4 13.7404 42.5637 12.4106 42.5637 12.4106H41.9063L42.0739 13.7483C42.1099 14.0371 42.0565 14.33 41.9208 14.5875C41.8001 14.8168 41.6191 15.0088 41.3972 15.1428C41.1754 15.2767 40.9211 15.3475 40.662 15.3475H40.0564C39.9402 15.3475 39.8283 15.3035 39.7433 15.2242C39.6208 15.11 39.5409 14.9574 39.5168 14.7916C39.4928 14.6258 39.526 14.4567 39.6111 14.3124L39.6187 14.2994C39.6929 14.1736 39.732 14.0302 39.7321 13.8842C39.7321 13.7624 39.6837 13.6456 39.5976 13.5595C39.5114 13.4734 39.3946 13.425 39.2729 13.425H37.7231C37.236 13.425 36.7688 13.6185 36.4243 13.963C36.0799 14.3074 35.8864 14.7746 35.8864 15.2617V16.045H43.4Z" fill="#FF4415"/>
<path d="M43.2051 12.7075L41.6709 12.5222V11.8971L43.1592 11.6069L43.2051 12.7075Z" fill="#F9D42F"/>
<path d="M43.2761 12.808C43.2152 12.808 43.1568 12.7838 43.1138 12.7407C43.0707 12.6977 43.0465 12.6393 43.0465 12.5784V11.66C43.0465 11.5991 43.0707 11.5407 43.1138 11.4977C43.1568 11.4546 43.2152 11.4304 43.2761 11.4304C43.337 11.4304 43.3954 11.4546 43.4385 11.4977C43.4815 11.5407 43.5057 11.5991 43.5057 11.66V12.5784C43.5057 12.6393 43.4815 12.6977 43.4385 12.7407C43.3954 12.7838 43.337 12.808 43.2761 12.808Z" fill="#FB9401"/>
<path d="M41.6258 12.5557C41.816 12.5557 41.9702 12.4015 41.9702 12.2113C41.9702 12.0211 41.816 11.8669 41.6258 11.8669C41.4356 11.8669 41.2814 12.0211 41.2814 12.2113C41.2814 12.4015 41.4356 12.5557 41.6258 12.5557Z" fill="#537980"/>
<path d="M42.889 17.5234C43.5031 17.5234 44.0009 17.0256 44.0009 16.4115C44.0009 15.7974 43.5031 15.2996 42.889 15.2996C42.2749 15.2996 41.7771 15.7974 41.7771 16.4115C41.7771 17.0256 42.2749 17.5234 42.889 17.5234Z" fill="#537980"/>
<path d="M42.8891 17.0643C42.76 17.0643 42.6338 17.026 42.5264 16.9542C42.4191 16.8825 42.3354 16.7806 42.286 16.6613C42.2366 16.542 42.2237 16.4108 42.2489 16.2842C42.2741 16.1575 42.3362 16.0412 42.4275 15.9499C42.5188 15.8587 42.6351 15.7965 42.7618 15.7713C42.8884 15.7461 43.0196 15.7591 43.1389 15.8085C43.2582 15.8579 43.3601 15.9416 43.4318 16.0489C43.5035 16.1563 43.5418 16.2825 43.5418 16.4116C43.5416 16.5846 43.4728 16.7505 43.3504 16.8729C43.228 16.9953 43.0621 17.0641 42.8891 17.0643Z" fill="#EDEDF9"/>
<path d="M41.6082 16.5051C41.5752 16.5054 41.5425 16.4985 41.5124 16.4849C41.4823 16.4713 41.4555 16.4513 41.4339 16.4263C41.4123 16.4013 41.3964 16.372 41.3872 16.3402C41.3781 16.3085 41.3759 16.2751 41.3809 16.2425C41.4424 15.8871 41.6275 15.5648 41.9034 15.3326C42.1794 15.1003 42.5285 14.9729 42.8891 14.9729C43.2498 14.9729 43.5989 15.1003 43.8749 15.3326C44.1508 15.5648 44.3358 15.8871 44.3973 16.2425C44.4024 16.2751 44.4002 16.3085 44.3911 16.3402C44.3819 16.372 44.366 16.4013 44.3444 16.4263C44.3228 16.4513 44.296 16.4713 44.2659 16.4849C44.2358 16.4985 44.2031 16.5054 44.17 16.5051H41.6082Z" fill="#F9D42F"/>
<path d="M37.2799 17.5234C37.894 17.5234 38.3918 17.0256 38.3918 16.4115C38.3918 15.7974 37.894 15.2996 37.2799 15.2996C36.6658 15.2996 36.168 15.7974 36.168 16.4115C36.168 17.0256 36.6658 17.5234 37.2799 17.5234Z" fill="#537980"/>
<path d="M37.2799 17.0643C37.1508 17.0643 37.0246 17.026 36.9173 16.9542C36.8099 16.8825 36.7263 16.7806 36.6769 16.6613C36.6275 16.542 36.6146 16.4108 36.6397 16.2842C36.6649 16.1575 36.7271 16.0412 36.8184 15.9499C36.9097 15.8587 37.026 15.7965 37.1526 15.7713C37.2793 15.7461 37.4105 15.7591 37.5298 15.8085C37.649 15.8579 37.751 15.9416 37.8227 16.0489C37.8944 16.1563 37.9327 16.2825 37.9327 16.4116C37.9325 16.5846 37.8636 16.7505 37.7413 16.8729C37.6189 16.9953 37.453 17.0641 37.2799 17.0643Z" fill="#EDEDF9"/>
<path d="M38.8842 16.505H35.829C35.794 16.5049 35.7595 16.4968 35.7281 16.4814C35.6968 16.466 35.6693 16.4436 35.6479 16.4159C35.6265 16.3882 35.6117 16.3561 35.6046 16.3218C35.5975 16.2876 35.5984 16.2521 35.6071 16.2183C35.7251 15.7603 35.9832 15.3506 36.3452 15.0463C36.7072 14.742 37.1552 14.5583 37.6267 14.5208C37.8527 14.5029 38.0798 14.5393 38.289 14.627C38.4981 14.7146 38.6833 14.851 38.829 15.0248C38.9747 15.1986 39.0768 15.4047 39.1267 15.6259C39.1766 15.8471 39.1729 16.0771 39.1159 16.2966L39.1064 16.3331C39.0936 16.3823 39.0648 16.4259 39.0246 16.457C38.9844 16.4881 38.935 16.5049 38.8842 16.505Z" fill="#F9D42F"/>
<path d="M36.6484 15.5251C36.6208 15.5252 36.5938 15.5167 36.5712 15.5009C36.5485 15.4851 36.5314 15.4626 36.522 15.4366C36.5126 15.4107 36.5115 15.3824 36.5188 15.3558C36.5261 15.3292 36.5414 15.3054 36.5627 15.2879C36.6601 15.2071 36.765 15.1359 36.8761 15.0754C36.8915 15.067 36.9084 15.0617 36.9259 15.0598C36.9434 15.058 36.9611 15.0596 36.978 15.0645C36.9948 15.0695 37.0105 15.0777 37.0242 15.0888C37.0379 15.0998 37.0493 15.1135 37.0577 15.1289C37.0661 15.1443 37.0714 15.1613 37.0732 15.1788C37.0751 15.1962 37.0735 15.2139 37.0685 15.2308C37.0636 15.2476 37.0553 15.2634 37.0443 15.277C37.0332 15.2907 37.0196 15.3021 37.0042 15.3105C36.9083 15.3628 36.8178 15.4244 36.7339 15.4942C36.7099 15.5142 36.6796 15.5251 36.6484 15.5251Z" fill="#FB9401"/>
<path d="M39.6173 13.65H36.9451C36.8538 13.65 36.7662 13.6137 36.7016 13.5491C36.637 13.4845 36.6007 13.3969 36.6007 13.3056C36.6007 13.2142 36.637 13.1266 36.7016 13.0621C36.7662 12.9975 36.8538 12.9612 36.9451 12.9612H39.6173C39.7087 12.9612 39.7963 12.9975 39.8609 13.0621C39.9255 13.1266 39.9617 13.2142 39.9617 13.3056C39.9617 13.3969 39.9255 13.4845 39.8609 13.5491C39.7963 13.6137 39.7087 13.65 39.6173 13.65Z" fill="#F9D42F"/>
<path d="M41.0365 10.9948C40.9756 10.9948 40.9172 10.9706 40.8741 10.9275C40.8311 10.8845 40.8069 10.8261 40.8069 10.7652V10.306C40.8069 10.2451 40.8311 10.1867 40.8741 10.1437C40.9172 10.1006 40.9756 10.0764 41.0365 10.0764C41.0974 10.0764 41.1558 10.1006 41.1988 10.1437C41.2419 10.1867 41.2661 10.2451 41.2661 10.306V10.7652C41.2661 10.8261 41.2419 10.8845 41.1988 10.9275C41.1558 10.9706 41.0974 10.9948 41.0365 10.9948Z" fill="#EDEDF9"/>
</g>
</g>
<defs>
<filter id="filter0_d_108_179" x="-2" y="0" width="84" height="84" filterUnits="userSpaceOnUse" color-interpolation-filters="sRGB">
<feFlood flood-opacity="0" result="BackgroundImageFix"/>
<feColorMatrix in="SourceAlpha" type="matrix" values="0 0 0 0 0 0 0 0 0 0 0 0 0 0 0 0 0 0 127 0" result="hardAlpha"/>
<feOffset dy="25"/>
<feGaussianBlur stdDeviation="15"/>
<feColorMatrix type="matrix" values="0 0 0 0 0 0 0 0 0 0 0 0 0 0 0 0 0 0 0.08 0"/>
<feBlend mode="normal" in2="BackgroundImageFix" result="effect1_dropShadow_108_179"/>
<feBlend mode="normal" in="SourceGraphic" in2="effect1_dropShadow_108_179" result="shape"/>
</filter>
<clipPath id="clip0_108_179">
<rect width="24" height="24" fill="white" transform="translate(28 5)"/>
</clipPath>
<clipPath id="clip1_108_179">
<rect width="8.8" height="8.8" fill="white" transform="translate(35.6 9.3999)"/>
</clipPath>
</defs>
</svg>
