<svg width="84" height="90" viewBox="0 0 84 90" fill="none" xmlns="http://www.w3.org/2000/svg">
<g clip-path="url(#clip0_108_156)" filter="url(#filter0_d_108_156)">
<path d="M52.8658 12.8047C51.8112 9.39453 49.0338 6.61713 45.6237 5.5625C44.4283 5.1933 43.1979 5 42.0026 5C39.5592 5 37.2038 5.75586 35.235 7.23248C32.317 9.37695 30.5768 12.8047 30.5768 16.4258C30.5768 18.9218 31.3678 21.295 32.8619 23.2813L42.0026 35L51.1432 23.2813C53.3756 20.293 54.0084 16.4786 52.8658 12.8047ZM42.0026 22.5781C38.61 22.5781 35.8502 19.8184 35.8502 16.4258C35.8502 13.0332 38.61 10.2734 42.0026 10.2734C45.3951 10.2734 48.1549 13.0332 48.1549 16.4258C48.1549 19.8184 45.3951 22.5781 42.0026 22.5781Z" fill="#FF4415"/>
<path d="M51.1432 23.2813L42.0026 35V22.5781C45.3951 22.5781 48.1549 19.8184 48.1549 16.4258C48.1549 13.0332 45.3951 10.2734 42.0026 10.2734V5C43.1979 5 44.4283 5.19336 45.6237 5.5625C49.0338 6.61713 51.8112 9.39453 52.8658 12.8047C54.0084 16.4786 53.3756 20.293 51.1432 23.2813Z" fill="#FF5F36"/>
<ellipse cx="42" cy="16.5" rx="8.5" ry="8.5" fill="white"/>
<g clip-path="url(#clip1_108_156)">
<path d="M44.0323 14.1815C44.0103 14.1815 43.9886 14.1772 43.9682 14.1688C43.9479 14.1604 43.9295 14.148 43.9139 14.1325C43.8984 14.1169 43.886 14.0985 43.8776 14.0782C43.8692 14.0578 43.8649 14.0361 43.8649 14.0141V12.4936C43.8648 12.3858 43.8219 12.2825 43.7457 12.2062C43.6695 12.13 43.5661 12.0871 43.4583 12.087H43.2957C43.2513 12.087 43.2087 12.0694 43.1773 12.038C43.1459 12.0066 43.1283 11.964 43.1283 11.9196C43.1283 11.8752 43.1459 11.8326 43.1773 11.8012C43.2087 11.7698 43.2513 11.7522 43.2957 11.7522H43.4583C43.6549 11.7524 43.8433 11.8306 43.9823 11.9696C44.1213 12.1086 44.1995 12.297 44.1997 12.4936V14.0141C44.1997 14.0585 44.1821 14.1011 44.1507 14.1325C44.1193 14.1639 44.0767 14.1815 44.0323 14.1815Z" fill="#385B60"/>
<path d="M36.7863 12.0815H39.6562V14.9515H36.7863V12.0815Z" fill="#F5502F"/>
<path d="M36.7863 12.0815H39.6562V12.6555H36.7863V12.0815Z" fill="#F9D42F"/>
<path d="M46.2501 18.8064C46.2501 15.9256 45.2047 14.2634 45.2047 14.2634H44.383L44.5925 15.9355C44.6375 16.2965 44.5707 16.6626 44.4012 16.9845C44.2503 17.2712 44.0239 17.5112 43.7466 17.6786C43.4693 17.846 43.1515 17.9345 42.8276 17.9345H42.0706C41.9253 17.9345 41.7855 17.8795 41.6792 17.7804C41.526 17.6376 41.4262 17.4468 41.3961 17.2396C41.366 17.0323 41.4076 16.821 41.5139 16.6406L41.5235 16.6244C41.6162 16.4671 41.6651 16.2879 41.6652 16.1053C41.6652 15.9531 41.6047 15.8071 41.497 15.6995C41.3894 15.5918 41.2434 15.5314 41.0912 15.5314H39.154C38.5451 15.5314 37.9611 15.7733 37.5305 16.2038C37.0999 16.6344 36.858 17.2184 36.858 17.8273V18.8064H46.2501Z" fill="#FF4415"/>
<path d="M46.0064 14.6347L44.0886 14.4031V13.6218L45.949 13.259L46.0064 14.6347Z" fill="#F9D42F"/>
<path d="M46.0952 14.7603C46.0191 14.7603 45.9461 14.73 45.8923 14.6762C45.8385 14.6224 45.8082 14.5494 45.8082 14.4733V13.3253C45.8082 13.2492 45.8385 13.1762 45.8923 13.1224C45.9461 13.0686 46.0191 13.0383 46.0952 13.0383C46.1713 13.0383 46.2443 13.0686 46.2982 13.1224C46.352 13.1762 46.3822 13.2492 46.3822 13.3253V14.4733C46.3822 14.5494 46.352 14.6224 46.2982 14.6762C46.2443 14.73 46.1713 14.7603 46.0952 14.7603Z" fill="#FB9401"/>
<path d="M44.0323 14.4447C44.27 14.4447 44.4628 14.252 44.4628 14.0142C44.4628 13.7765 44.27 13.5837 44.0323 13.5837C43.7945 13.5837 43.6018 13.7765 43.6018 14.0142C43.6018 14.252 43.7945 14.4447 44.0323 14.4447Z" fill="#537980"/>
<path d="M45.6114 20.6546C46.379 20.6546 47.0013 20.0323 47.0013 19.2647C47.0013 18.497 46.379 17.8748 45.6114 17.8748C44.8438 17.8748 44.2215 18.497 44.2215 19.2647C44.2215 20.0323 44.8438 20.6546 45.6114 20.6546Z" fill="#537980"/>
<path d="M45.6114 20.0806C45.45 20.0806 45.2923 20.0327 45.1581 19.9431C45.0239 19.8534 44.9193 19.726 44.8576 19.5769C44.7958 19.4278 44.7797 19.2637 44.8112 19.1054C44.8426 18.9472 44.9204 18.8018 45.0345 18.6877C45.1486 18.5736 45.294 18.4959 45.4523 18.4644C45.6106 18.4329 45.7746 18.4491 45.9237 18.5109C46.0728 18.5726 46.2002 18.6772 46.2899 18.8114C46.3795 18.9456 46.4273 19.1034 46.4273 19.2647C46.4271 19.4811 46.341 19.6884 46.1881 19.8414C46.0351 19.9943 45.8277 20.0803 45.6114 20.0806Z" fill="#EDEDF9"/>
<path d="M44.0103 19.3816C43.969 19.382 43.9282 19.3733 43.8905 19.3563C43.8529 19.3393 43.8194 19.3143 43.7924 19.2831C43.7654 19.2519 43.7455 19.2151 43.734 19.1755C43.7226 19.1358 43.7199 19.0941 43.7262 19.0533C43.8031 18.609 44.0344 18.2062 44.3793 17.9159C44.7242 17.6255 45.1606 17.4663 45.6115 17.4663C46.0623 17.4663 46.4987 17.6255 46.8436 17.9159C47.1885 18.2062 47.4198 18.609 47.4967 19.0533C47.503 19.0941 47.5003 19.1358 47.4889 19.1755C47.4774 19.2151 47.4575 19.2519 47.4305 19.2831C47.4035 19.3143 47.37 19.3393 47.3324 19.3563C47.2947 19.3733 47.2539 19.382 47.2126 19.3816H44.0103Z" fill="#F9D42F"/>
<path d="M38.5999 20.6546C39.3675 20.6546 39.9898 20.0323 39.9898 19.2647C39.9898 18.497 39.3675 17.8748 38.5999 17.8748C37.8323 17.8748 37.21 18.497 37.21 19.2647C37.21 20.0323 37.8323 20.6546 38.5999 20.6546Z" fill="#537980"/>
<path d="M38.5999 20.0806C38.4385 20.0806 38.2808 20.0327 38.1466 19.9431C38.0124 19.8534 37.9078 19.726 37.8461 19.5769C37.7843 19.4278 37.7682 19.2637 37.7997 19.1054C37.8312 18.9472 37.9089 18.8018 38.023 18.6877C38.1371 18.5736 38.2825 18.4959 38.4408 18.4644C38.5991 18.4329 38.7631 18.4491 38.9122 18.5109C39.0613 18.5726 39.1887 18.6772 39.2784 18.8114C39.368 18.9456 39.4159 19.1034 39.4158 19.2647C39.4156 19.4811 39.3295 19.6884 39.1766 19.8414C39.0236 19.9943 38.8162 20.0803 38.5999 20.0806Z" fill="#EDEDF9"/>
<path d="M40.6053 19.3815H36.7863C36.7426 19.3814 36.6995 19.3713 36.6602 19.352C36.621 19.3328 36.5867 19.3048 36.5599 19.2702C36.5332 19.2356 36.5147 19.1954 36.5058 19.1526C36.497 19.1098 36.498 19.0655 36.5089 19.0231C36.6565 18.4507 36.979 17.9386 37.4316 17.5582C37.8841 17.1778 38.4441 16.9482 39.0334 16.9013C39.316 16.8789 39.5998 16.9244 39.8613 17.034C40.1227 17.1436 40.3541 17.3141 40.5363 17.5313C40.7185 17.7485 40.846 18.0061 40.9084 18.2827C40.9708 18.5592 40.9662 18.8466 40.8949 19.121L40.883 19.1667C40.8671 19.2282 40.8311 19.2827 40.7809 19.3215C40.7306 19.3604 40.6689 19.3815 40.6053 19.3815Z" fill="#F9D42F"/>
<path d="M37.8105 18.1567C37.7759 18.1568 37.7422 18.1463 37.7139 18.1265C37.6857 18.1067 37.6642 18.0786 37.6525 18.0462C37.6407 18.0137 37.6393 17.9784 37.6485 17.9451C37.6576 17.9118 37.6768 17.8821 37.7034 17.8602C37.8251 17.7592 37.9562 17.6703 38.0951 17.5946C38.1143 17.5841 38.1355 17.5775 38.1574 17.5752C38.1792 17.5728 38.2013 17.5748 38.2224 17.581C38.2435 17.5872 38.2631 17.5975 38.2802 17.6114C38.2973 17.6252 38.3115 17.6422 38.3221 17.6615C38.3326 17.6808 38.3392 17.702 38.3415 17.7238C38.3439 17.7457 38.3419 17.7678 38.3356 17.7888C38.3294 17.8099 38.3191 17.8296 38.3053 17.8467C38.2915 17.8638 38.2745 17.878 38.2552 17.8885C38.1354 17.9539 38.0222 18.0308 37.9173 18.1181C37.8873 18.1431 37.8495 18.1567 37.8105 18.1567Z" fill="#FB9401"/>
<path d="M41.5216 15.8126H38.1813C38.0672 15.8126 37.9577 15.7673 37.8769 15.6866C37.7962 15.6058 37.7509 15.4963 37.7509 15.3821C37.7509 15.268 37.7962 15.1585 37.8769 15.0777C37.9577 14.997 38.0672 14.9517 38.1813 14.9517H41.5216C41.6358 14.9517 41.7453 14.997 41.8261 15.0777C41.9068 15.1585 41.9521 15.268 41.9521 15.3821C41.9521 15.4963 41.9068 15.6058 41.8261 15.6866C41.7453 15.7673 41.6358 15.8126 41.5216 15.8126Z" fill="#F9D42F"/>
<path d="M43.2956 12.4937C43.2195 12.4937 43.1465 12.4634 43.0927 12.4096C43.0388 12.3558 43.0086 12.2828 43.0086 12.2067V11.6327C43.0086 11.5566 43.0388 11.4836 43.0927 11.4298C43.1465 11.3759 43.2195 11.3457 43.2956 11.3457C43.3717 11.3457 43.4447 11.3759 43.4985 11.4298C43.5524 11.4836 43.5826 11.5566 43.5826 11.6327V12.2067C43.5826 12.2828 43.5524 12.3558 43.4985 12.4096C43.4447 12.4634 43.3717 12.4937 43.2956 12.4937Z" fill="#EDEDF9"/>
</g>
</g>
<defs>
<filter id="filter0_d_108_156" x="-3" y="0" width="90" height="90" filterUnits="userSpaceOnUse" color-interpolation-filters="sRGB">
<feFlood flood-opacity="0" result="BackgroundImageFix"/>
<feColorMatrix in="SourceAlpha" type="matrix" values="0 0 0 0 0 0 0 0 0 0 0 0 0 0 0 0 0 0 127 0" result="hardAlpha"/>
<feOffset dy="25"/>
<feGaussianBlur stdDeviation="15"/>
<feColorMatrix type="matrix" values="0 0 0 0 0 0 0 0 0 0 0 0 0 0 0 0 0 0 0.08 0"/>
<feBlend mode="normal" in2="BackgroundImageFix" result="effect1_dropShadow_108_156"/>
<feBlend mode="normal" in="SourceGraphic" in2="effect1_dropShadow_108_156" result="shape"/>
</filter>
<clipPath id="clip0_108_156">
<rect width="30" height="30" fill="white" transform="translate(27 5)"/>
</clipPath>
<clipPath id="clip1_108_156">
<rect width="11" height="11" fill="white" transform="translate(36.5 10.5)"/>
</clipPath>
</defs>
</svg>
