<svg width="54" height="36" viewBox="0 0 54 36" fill="none" xmlns="http://www.w3.org/2000/svg">
<mask id="path-1-inside-1_108_335" fill="white">
<path d="M54 36C54 29.6807 52.3366 23.4727 49.1769 18C46.0173 12.5273 41.4727 7.98274 36 4.82308C30.5273 1.66343 24.3193 -2.76226e-07 18 0C11.6807 2.76226e-07 5.47269 1.66343 -1.90735e-06 4.82309L3.70902 11.2473C8.05402 8.7387 12.9828 7.41804 18 7.41804C23.0172 7.41804 27.946 8.7387 32.291 11.2473C36.636 13.7559 40.2441 17.364 42.7527 21.709C45.2613 26.054 46.582 30.9828 46.582 36H54Z"/>
</mask>
<path d="M54 36C54 29.6807 52.3366 23.4727 49.1769 18C46.0173 12.5273 41.4727 7.98274 36 4.82308C30.5273 1.66343 24.3193 -2.76226e-07 18 0C11.6807 2.76226e-07 5.47269 1.66343 -1.90735e-06 4.82309L3.70902 11.2473C8.05402 8.7387 12.9828 7.41804 18 7.41804C23.0172 7.41804 27.946 8.7387 32.291 11.2473C36.636 13.7559 40.2441 17.364 42.7527 21.709C45.2613 26.054 46.582 30.9828 46.582 36H54Z" fill="white" stroke="#46C366" stroke-width="12" mask="url(#path-1-inside-1_108_335)"/>
</svg>
