<svg width="30" height="30" viewBox="0 0 30 30" fill="none" xmlns="http://www.w3.org/2000/svg">
<path d="M26.25 0H3.75C1.68187 0 0 1.68187 0 3.75V26.25C0 28.3181 1.68187 30 3.75 30H26.25C28.3181 30 30 28.3181 30 26.25V3.75C30 1.68187 28.3181 0 26.25 0Z" fill="#252525"/>
<path fill-rule="evenodd" clip-rule="evenodd" d="M18.9669 13.293H16.5083V11.3477C16.5083 10.8108 16.9489 10.8613 17.4917 10.8613H18.4752V8.42969H16.5083C15.7258 8.42969 14.9753 8.73712 14.422 9.28435C13.8687 9.83158 13.5579 10.5738 13.5579 11.3477V13.293H11.5909V15.7247H13.5579V21.0743H16.5083V15.7247H17.9835L18.9669 13.293Z" fill="white"/>
</svg>
