<svg width="31" height="30" viewBox="0 0 31 30" fill="none" xmlns="http://www.w3.org/2000/svg">
<path d="M24.0474 0H7.51462C3.79574 0 0.780991 3.01475 0.780991 6.73363V23.2664C0.780991 26.9852 3.79574 30 7.51462 30H24.0474C27.7662 30 30.781 26.9852 30.781 23.2664V6.73363C30.781 3.01475 27.7662 0 24.0474 0Z" fill="#252525"/>
<path d="M12.2773 12.9765H9.87683V20.0064H12.2773V12.9765Z" fill="white"/>
<path d="M11.8738 9.69587C11.645 9.55733 11.3761 9.4834 11.1011 9.4834C10.9176 9.4834 10.7359 9.51632 10.5664 9.58028C10.397 9.64423 10.2431 9.73796 10.1137 9.85607C9.98436 9.97418 9.88197 10.1143 9.81247 10.2685C9.74297 10.4226 9.70774 10.5877 9.70879 10.7543C9.71037 11.0039 9.79337 11.2475 9.94732 11.4543C10.1013 11.6612 10.3193 11.822 10.5738 11.9165C10.8283 12.0111 11.108 12.0351 11.3776 11.9855C11.6471 11.9359 11.8945 11.815 12.0884 11.638C12.2823 11.461 12.4141 11.2358 12.4672 10.9909C12.5203 10.746 12.4922 10.4923 12.3866 10.2618C12.281 10.0313 12.1025 9.8344 11.8738 9.69587Z" fill="white"/>
<path d="M16.1306 12.9762H13.8181L13.8101 20.0206H16.2106V16.542C16.2106 15.6269 16.4027 14.7409 17.6509 14.7409C18.8992 14.7409 18.8992 15.7939 18.8992 16.6073V20.0061H21.2997V16.1498C21.2997 14.2544 20.8116 12.8019 18.4111 12.8019C17.9536 12.7856 17.4998 12.8824 17.0981 13.082C16.6965 13.2815 16.3621 13.5763 16.1306 13.9348V12.9762Z" fill="white"/>
</svg>
